<svg width="320" height="84" viewBox="0 0 320 84" fill="none" xmlns="http://www.w3.org/2000/svg">
<g clip-path="url(#clip0_14_390)">
<path d="M266.533 23.6712V84H320V0L294.073 0.1512L238.298 8.74272V0L212.371 0.1512L156.174 8.82C155.289 3.89424 150.941 0.11424 145.712 0.11424H10.6179C4.76936 0.11424 0 4.84848 0 10.6512V41.2742C0 47.077 7.04 51.8112 12.8851 51.8112H105.974C114.553 51.8112 113.631 62.3482 105.974 62.3482H0V83.9194H145.709C151.554 83.9194 156.327 79.1851 156.327 73.3824V27.3336L184.831 23.6309V83.9597H238.298V27.3L266.533 23.6342V23.6712ZM39.2749 20.7682H106.169C109.44 20.7682 112.092 23.4024 112.092 26.6482C112.092 29.8939 109.399 32.5282 106.169 32.5282H39.2749C36.0068 32.5282 33.3515 29.8939 33.3515 26.6482C33.3515 23.4024 36.0443 20.7682 39.2749 20.7682Z" fill="white"/>
</g>
<defs>
<clipPath id="clip0_14_390">
<rect width="320" height="84" fill="white"/>
</clipPath>
</defs>
</svg>
