<svg width="320" height="43" viewBox="0 0 320 43" fill="none" xmlns="http://www.w3.org/2000/svg">
<g clip-path="url(#clip0_9_241)">
<path d="M319.585 34.6283C319.438 34.1271 319.198 33.8245 318.886 33.6988C318.573 33.5731 318.114 33.5913 317.487 33.7699C315.316 34.4149 313.295 34.8796 311.362 35.1476C309.448 35.4337 307.884 35.5412 306.689 35.4701C305.494 35.3989 304.904 35.2021 304.904 34.8614C304.904 34.5571 305.365 33.8592 306.302 32.7313C307.291 31.5474 308.309 30.3893 309.357 29.2582C310.901 27.5763 312.096 26.2151 312.926 25.1782C313.771 24.123 314.176 23.4069 314.176 23.0133C314.176 22.5833 314.047 22.0656 313.807 21.4388C313.567 20.8181 313.182 20.2655 312.686 19.828C312.183 19.381 311.534 19.1383 310.865 19.1466C308.566 19.1466 305.089 19.7734 300.434 21.0436C296.167 22.2062 289.949 24.1941 281.765 26.9842L288.939 19.3418L278.214 20.4333L268.189 31.5273C265.024 32.6718 262.651 33.4788 261.069 33.9254C259.487 34.3719 258.421 34.6068 257.887 34.6068C257.538 34.6068 257.207 34.3918 256.895 33.9618C256.542 33.5129 256.286 32.9948 256.142 32.4402C255.96 31.9535 255.86 31.4391 255.846 30.9187C255.846 30.578 256.049 30.1314 256.436 29.5592C256.841 29.0035 257.669 28.0559 258.919 26.7311C260.17 25.4064 261.77 23.7426 263.721 21.7729L266.111 19.3219H257.631C251.672 19.3219 244.811 20.1439 237.048 21.7729C229.285 23.402 222.645 25.5304 217.127 28.1435C213.907 29.6833 211.628 31.2577 210.284 32.8868C207.894 33.6029 205.593 34.2462 203.388 34.8019C200.94 35.4287 197.925 36.0009 194.354 36.5021C190.785 37.0214 187.015 37.2711 183.043 37.2711C181.239 37.2711 179.804 37.0925 178.738 36.7154C177.672 36.3565 177.156 35.6239 177.156 34.5505C177.156 33.2622 178.775 31.9027 181.995 30.4887C185.215 29.0746 189.371 27.7516 194.431 26.5343C199.507 25.3171 204.823 24.2972 210.379 23.4747C211.005 22.8661 211.501 22.3292 211.868 21.8639C212.237 21.3975 212.457 20.9873 212.495 20.6466C212.586 19.8776 212.034 19.484 210.839 19.484C205.762 19.484 199.527 20.2712 192.113 21.8275C184.7 23.402 178.299 25.4775 172.891 28.0741C169.855 29.541 167.667 31.0626 166.341 32.6734C164.815 33.2109 163.564 33.6029 162.607 33.8725C161.025 34.3206 159.959 34.5538 159.425 34.5538C159.076 34.5538 158.745 34.3388 158.433 33.9088C158.08 33.46 157.824 32.9419 157.68 32.3873C157.498 31.9004 157.399 31.3861 157.386 30.8658C157.386 30.5251 157.589 30.0785 157.975 29.5063C158.38 28.9506 159.208 28.003 160.459 26.6782C161.709 25.3535 163.309 23.6897 165.26 21.72L167.651 19.269H159.171C153.21 19.269 146.349 20.091 138.586 21.72C130.823 23.349 124.183 25.4775 118.666 28.0923C113.425 30.5796 110.682 33.1911 110.426 35.9497C110.021 35.9684 109.193 36.0759 107.943 36.2722C104.318 36.7386 101.285 37.0412 98.8 37.1669C96.3363 37.2926 95.1037 37.023 95.1037 36.3268C95.1037 35.7181 96.1143 34.2313 98.1208 31.8531C100.126 29.4738 102.719 26.5746 105.902 23.1555C110.676 18.027 112.139 16.517 115.1 13.4739C117.344 11.1122 119.35 9.01845 121.097 7.15622C122.846 5.31218 123.709 4.31161 123.709 4.13134C123.709 3.70134 123.488 3.16439 123.047 2.52049C122.384 1.55464 121.98 1.32145 121.189 0.838529C120.361 0.356231 119.421 0.108838 118.467 0.122414C114.586 0.122414 109.362 1.71507 102.777 4.91857C96.209 8.12207 89.92 11.61 83.9232 15.4056C77.9265 19.2012 71.6718 23.3143 65.1983 27.735C64.0552 28.5403 62.8958 29.3217 61.7208 30.0785C60.7657 30.7053 60.3037 30.9733 60.3037 30.8823C60.3037 30.7913 61.2408 29.8983 63.1184 28.1799C65.2408 26.2409 67.3687 24.3081 69.502 22.3815C75.4628 17.0677 80.1535 12.8091 83.5918 9.60391C87.0302 6.39876 88.7608 4.59276 88.7608 4.16441C88.7608 3.69803 88.5028 3.12745 88.0081 2.46426C87.4439 1.75062 86.7431 1.15994 85.9477 0.727722C85.0904 0.234638 84.1189 -0.0182468 83.133 -0.00493225C79.1962 -0.00493225 72.4457 2.26745 62.8816 6.81222C53.2979 11.3586 42.831 16.9586 31.4432 23.6153C20.0555 30.272 9.57223 36.7319 0.00488281 42.9951H1.40243C5.54121 42.9058 8.44733 42.7983 10.1028 42.6362C11.7584 42.4923 13.231 42.1698 14.5355 41.6703C15.8416 41.1709 17.4792 40.2927 19.4661 39.0043C27.4675 33.9453 35.5879 29.0822 43.8204 24.4191C51.8955 19.8561 58.5551 16.259 63.8155 13.6294C69.0579 11.0163 71.6898 9.92641 71.6898 10.3366C71.6898 10.373 71.4498 10.6227 70.9894 11.0692L69.2408 12.7694C60.9828 20.6599 51.8579 29.9661 41.8335 40.6499C46.3396 40.6499 49.5053 40.5788 51.3632 40.4531C53.2212 40.3274 54.9322 39.952 56.4963 39.3616C58.0604 38.7529 60.0833 37.6614 62.5486 36.0688L75.8481 27.6408C82.6906 23.4003 88.3396 19.9272 92.8261 17.2794C97.2963 14.6134 100.681 12.7165 102.962 11.5885C105.242 10.4441 106.366 10.1216 106.366 10.5863C106.366 10.6227 106.034 11.0163 105.373 11.749C104.71 12.4816 103.92 13.3234 102.983 14.2545C99.8437 17.6082 96.7344 20.9904 93.6555 24.4009C91.0794 27.2545 88.6365 30.2286 86.3347 33.3134C84.1094 36.3201 82.9861 38.5032 82.9861 39.8809C82.9861 41.1692 84.8441 41.9035 88.5404 42.0987C92.2367 42.2938 96.5241 42.0805 101.38 41.4537C105.647 40.898 109.069 40.2546 111.662 39.4839C112.968 40.7359 115.251 41.4355 118.522 41.5777C123.948 41.8109 130.405 40.6119 137.874 37.9823C141.254 36.7914 144.543 35.3498 147.714 33.669C148.487 35.5478 149.131 36.9982 149.683 37.9823C150.346 39.1631 150.934 39.952 151.468 40.3621C152.002 40.7723 152.607 40.9708 153.326 40.9708C154.429 40.9708 157.335 40.1488 162.026 38.5198L164.95 37.4828C165.246 38.3593 165.943 39.1118 167.066 39.737C168.593 40.5953 170.599 41.2221 173.082 41.6339C175.566 42.0458 178.305 42.2426 181.249 42.2426C184.56 42.2426 188.423 41.8655 192.855 41.1146C197.288 40.3638 201.611 39.4145 205.824 38.2518C206.908 37.9475 207.958 37.6598 208.932 37.3571C209.466 39.952 212.152 41.366 216.971 41.5628C222.398 41.796 228.855 40.597 236.323 37.9674C239.704 36.7777 242.993 35.336 246.163 33.6541C246.935 35.5346 247.58 36.9833 248.132 37.9674C248.797 39.1482 249.383 39.9371 249.918 40.3473C250.452 40.7574 251.058 40.9559 251.776 40.9559C252.88 40.9559 255.786 40.1339 260.477 38.5049C261.084 38.2899 261.672 38.0931 262.261 37.8781L259.244 41.2073H264.341C265.886 41.2073 267.192 41.0286 268.276 40.6879C269.316 40.3732 270.26 39.7942 271.017 39.006L276.958 32.7594C281.853 31.1668 286.101 29.842 289.651 28.8051C293.863 27.5878 297.008 26.783 299.087 26.3905C301.167 25.9985 302.198 25.9786 302.198 26.3193C302.198 26.445 301.846 26.9279 301.13 27.7334C300.431 28.5553 299.621 29.4517 298.74 30.4358C296.661 32.7081 295.043 34.5869 293.846 36.0721C292.65 37.5572 292.062 38.5776 292.062 39.1317C292.062 40.5986 293.791 41.3148 297.229 41.2966C300.668 41.2784 304.679 40.7773 309.242 39.8114C313.806 38.8456 317.389 37.8417 320.003 36.8229C319.819 35.7496 319.654 34.9607 319.505 34.4794L319.598 34.6233H319.589L319.585 34.6283ZM128.976 35.3113C124.857 35.9563 122.796 35.7413 122.795 34.6663C122.793 33.0538 124.727 32.2153 128.589 30.5151C132.452 28.815 137.032 27.348 142.349 26.0779C147.06 24.9516 151.252 24.3231 154.913 24.1975L154.361 24.682C151.528 27.2223 147.629 29.46 142.643 31.4099C137.657 33.3598 133.097 34.6679 128.976 35.3113ZM227.463 35.3113C223.342 35.9563 221.282 35.7413 221.282 34.6663C221.282 33.0538 223.215 32.2153 227.076 30.5151C230.937 28.815 235.518 27.348 240.836 26.0779C245.546 24.9516 249.739 24.3231 253.399 24.1975L252.846 24.682C250.013 27.2223 246.114 29.46 241.13 31.4099C236.145 33.3598 231.582 34.6679 227.463 35.3113Z" fill="white"/>
</g>
<defs>
<clipPath id="clip0_9_241">
<rect width="320" height="43" fill="white"/>
</clipPath>
</defs>
</svg>
